<svg width="128" height="128" viewBox="0 0 128 128" xmlns="http://www.w3.org/2000/svg">
  <!-- Background circle -->
  <circle cx="64" cy="64" r="60" fill="#667eea" stroke="#4a5568" stroke-width="2"/>
  
  <!-- Leg/knee shape -->
  <path d="M45 25 L45 45 Q45 55 55 55 L73 55 Q83 55 83 65 L83 85 Q83 95 73 95 L55 95 Q45 95 45 105 L45 125" 
        fill="none" stroke="#ffffff" stroke-width="8" stroke-linecap="round" stroke-linejoin="round"/>
  
  <!-- Knee joint -->
  <circle cx="64" cy="75" r="12" fill="#ffffff" stroke="#4a5568" stroke-width="2"/>
  
  <!-- Scraping effect lines -->
  <g stroke="#ffffff" stroke-width="2" opacity="0.7">
    <line x1="25" y1="35" x2="35" y2="35"/>
    <line x1="25" y1="45" x2="35" y2="45"/>
    <line x1="25" y1="55" x2="35" y2="55"/>
    <line x1="25" y1="65" x2="35" y2="65"/>
    <line x1="25" y1="75" x2="35" y2="75"/>
    <line x1="25" y1="85" x2="35" y2="85"/>
    <line x1="25" y1="95" x2="35" y2="95"/>
  </g>
</svg>